<?xml version="1.0" standalone="no"?><!DOCTYPE svg PUBLIC "-//W3C//DTD SVG 1.1//EN" "http://www.w3.org/Graphics/SVG/1.1/DTD/svg11.dtd"><svg xmlns:xlink="http://www.w3.org/1999/xlink" version="1.1" style="font-family:'lucida grande', 'lucida sans unicode', arial, helvetica, sans-serif;font-size:12px;" xmlns="http://www.w3.org/2000/svg" width="600" height="400"><desc>Created with Highcharts 4.1.7</desc><defs><clipPath id="highcharts-11"><rect x="0" y="0" width="522" height="242"></rect></clipPath></defs><rect x="0" y="0" width="600" height="400" strokeWidth="0" fill="#FFFFFF" class=" highcharts-background"></rect><g class="highcharts-grid" ></g><g class="highcharts-grid" ><path fill="none" d="M 68 301.5 L 590 301.5" stroke="#D8D8D8" stroke-width="1"  opacity="1"></path><path fill="none" d="M 68 241.5 L 590 241.5" stroke="#D8D8D8" stroke-width="1"  opacity="1"></path><path fill="none" d="M 68 180.5 L 590 180.5" stroke="#D8D8D8" stroke-width="1"  opacity="1"></path><path fill="none" d="M 68 120.5 L 590 120.5" stroke="#D8D8D8" stroke-width="1"  opacity="1"></path><path fill="none" d="M 68 58.5 L 590 58.5" stroke="#D8D8D8" stroke-width="1"  opacity="1"></path></g><g class="highcharts-axis" ><path fill="none" d="M 68 301.5 L 590 301.5" stroke="#C0D0E0" stroke-width="1"  visibility="visible"></path></g><g class="highcharts-axis" ><text x="23.765625"  text-anchor="middle" transform="translate(0,0) rotate(270 23.765625 180)" class=" highcharts-yaxis-title" style="color:#707070;fill:#707070;" visibility="visible" y="180"><tspan>Freq. (pro Million Tokens)</tspan></text></g><g class="highcharts-series-group" ><g class="highcharts-series" visibility="visible"  transform="translate(68,59) scale(1 1)" clip-path="url(#highcharts-11)"><path fill="none" d="M 6.214285714285714 232.4263053089661 C 6.214285714285714 232.4263053089661 13.671428571428573 228.60819372769674 18.642857142857142 228.60819372769674 C 23.614285714285717 228.60819372769674 26.1 229.5698193432699 31.071428571428573 229.5698193432699 C 36.042857142857144 229.5698193432699 38.528571428571425 228.87621335322663 43.5 228.50899456871798 C 48.471428571428575 228.14177578420933 50.957142857142856 228.33460889202686 55.92857142857143 227.73372542072659 C 60.9 227.13284194942634 63.385714285714286 227.07465092603522 68.35714285714286 225.5045772122166 C 73.32857142857142 223.93450349839796 75.81428571428572 221.66817608257702 80.78571428571428 219.88335685163352 C 85.75714285714284 218.09853762069002 88.24285714285713 217.8541015459079 93.21428571428571 216.58048105749916 C 98.18571428571428 215.30686056909042 100.67142857142858 213.51525440958986 105.64285714285714 213.51525440958986 C 110.61428571428571 213.51525440958986 113.1 213.51525440958986 118.07142857142857 213.58134045034288 C 123.04285714285716 213.6474264910959 125.52857142857142 214.3757630164556 130.5 214.99241499127393 C 135.4714285714286 215.60906696609226 137.95714285714286 216.66460032443442 142.92857142857144 216.66460032443442 C 147.9 216.66460032443442 150.3857142857143 215.42516694689849 155.35714285714286 215.42516694689849 C 160.32857142857142 215.42516694689849 162.81428571428575 219.45241705049628 167.7857142857143 220.88166571144154 C 172.75714285714287 222.31091437238683 175.24285714285716 221.2179788263625 180.21428571428572 222.5714102516249 C 185.18571428571428 223.92484167688735 187.6714285714286 227.64742995951303 192.64285714285717 227.64882283775367 C 197.61428571428573 227.6502157159943 200.10000000000002 227.64882283775367 205.07142857142858 227.6502157159943 C 210.04285714285714 227.65160859423494 212.5285714285714 227.81082844704264 217.5 227.89403676141504 C 222.4714285714286 227.97724507578744 224.95714285714286 227.89403676141504 229.92857142857144 228.06625728785627 C 234.9 228.2384778142975 237.3857142857143 230.8365693107995 242.35714285714286 230.8365693107995 C 247.32857142857142 230.8365693107995 249.81428571428575 230.6715288586656 254.7857142857143 230.6715288586656 C 259.75714285714287 230.6715288586656 262.24285714285713 230.6715288586656 267.2142857142857 230.79586915752262 C 272.1857142857143 230.92020945637964 274.67142857142863 232.23731645464235 279.64285714285717 232.23731645464235 C 284.61428571428576 232.23731645464235 287.1 229.59184595985658 292.0714285714286 228.2555848031485 C 297.04285714285714 226.91932364644046 299.52857142857147 225.55601067110203 304.5 225.55601067110203 C 309.4714285714286 225.55601067110203 311.95714285714286 226.86538523104232 316.92857142857144 226.98863705775037 C 321.9 227.1118888844584 324.3857142857143 226.98863705775037 329.3571428571429 227.1118888844584 C 334.3285714285715 227.23514071116645 336.81428571428575 227.56185449202863 341.7857142857143 228.12162063494995 C 346.75714285714287 228.68138677787127 349.24285714285713 229.43424295566572 354.2142857142857 229.91071959906495 C 359.1857142857143 230.38719624246417 361.67142857142863 229.91071959906495 366.64285714285717 230.50400385194604 C 371.61428571428576 231.09728810482713 374.1 233.73024907843197 379.0714285714286 235.50712123856974 C 384.04285714285714 237.2839933987075 386.52857142857147 238.58342024502275 391.5 239.38836465263492 C 396.4714285714286 240.1933090602471 398.95714285714286 239.7743911243345 403.92857142857144 240.1933090602471 C 408.9 240.61222699615965 411.3857142857143 241.4829543321978 416.3571428571429 241.4829543321978 C 421.3285714285715 241.4829543321978 423.8142857142857 241.4829543321978 428.7857142857143 241.40026756914685 C 433.75714285714287 241.3175808060959 436.24285714285713 241.0163324295514 441.2142857142857 240.8657974177267 C 446.1857142857143 240.71526240590202 448.67142857142863 240.71862121152768 453.64285714285717 240.64759251002346 C 458.61428571428576 240.5765638085192 461.1 240.5193667624828 466.0714285714286 240.51065391020555 C 471.04285714285714 240.5019410579283 473.52857142857147 240.51065391020555 478.5 240.5019410579283 C 483.47142857142865 240.49322820565104 485.95714285714286 240.36655383505445 490.92857142857144 240.252264567583 C 495.9 240.13797530011158 498.3857142857143 239.93553391226314 503.3571428571429 239.93049472057115 C 508.32857142857137 239.92545552887916 515.7857142857142 239.92545552887916 515.7857142857142 239.92545552887916" stroke="#337AB7" stroke-width="2"  stroke-linejoin="round" stroke-linecap="round"></path></g><g class="highcharts-markers" visibility="visible"  transform="translate(68,59) scale(1 1)" clip-path="none"><path fill="#337AB7" d="M 515 237.92545552887916 C 517.664 237.92545552887916 517.664 241.92545552887916 515 241.92545552887916 C 512.336 241.92545552887916 512.336 237.92545552887916 515 237.92545552887916 Z"></path><path fill="#337AB7" d="M 503 237.93049472057115 C 505.664 237.93049472057115 505.664 241.93049472057115 503 241.93049472057115 C 500.336 241.93049472057115 500.336 237.93049472057115 503 237.93049472057115 Z"></path><path fill="#337AB7" d="M 490 238.252264567583 C 492.664 238.252264567583 492.664 242.252264567583 490 242.252264567583 C 487.336 242.252264567583 487.336 238.252264567583 490 238.252264567583 Z"></path><path fill="#337AB7" d="M 478 238.5019410579283 C 480.664 238.5019410579283 480.664 242.5019410579283 478 242.5019410579283 C 475.336 242.5019410579283 475.336 238.5019410579283 478 238.5019410579283 Z"></path><path fill="#337AB7" d="M 466 238.51065391020555 C 468.664 238.51065391020555 468.664 242.51065391020555 466 242.51065391020555 C 463.336 242.51065391020555 463.336 238.51065391020555 466 238.51065391020555 Z"></path><path fill="#337AB7" d="M 453 238.64759251002346 C 455.664 238.64759251002346 455.664 242.64759251002346 453 242.64759251002346 C 450.336 242.64759251002346 450.336 238.64759251002346 453 238.64759251002346 Z"></path><path fill="#337AB7" d="M 441 238.8657974177267 C 443.664 238.8657974177267 443.664 242.8657974177267 441 242.8657974177267 C 438.336 242.8657974177267 438.336 238.8657974177267 441 238.8657974177267 Z"></path><path fill="#337AB7" d="M 428 239.40026756914685 C 430.664 239.40026756914685 430.664 243.40026756914685 428 243.40026756914685 C 425.336 243.40026756914685 425.336 239.40026756914685 428 239.40026756914685 Z"></path><path fill="#337AB7" d="M 416 239.4829543321978 C 418.664 239.4829543321978 418.664 243.4829543321978 416 243.4829543321978 C 413.336 243.4829543321978 413.336 239.4829543321978 416 239.4829543321978 Z"></path><path fill="#337AB7" d="M 403 238.1933090602471 C 405.664 238.1933090602471 405.664 242.1933090602471 403 242.1933090602471 C 400.336 242.1933090602471 400.336 238.1933090602471 403 238.1933090602471 Z"></path><path fill="#337AB7" d="M 391 237.38836465263492 C 393.664 237.38836465263492 393.664 241.38836465263492 391 241.38836465263492 C 388.336 241.38836465263492 388.336 237.38836465263492 391 237.38836465263492 Z"></path><path fill="#337AB7" d="M 379 233.50712123856974 C 381.664 233.50712123856974 381.664 237.50712123856974 379 237.50712123856974 C 376.336 237.50712123856974 376.336 233.50712123856974 379 233.50712123856974 Z"></path><path fill="#337AB7" d="M 366 228.50400385194604 C 368.664 228.50400385194604 368.664 232.50400385194604 366 232.50400385194604 C 363.336 232.50400385194604 363.336 228.50400385194604 366 228.50400385194604 Z"></path><path fill="#337AB7" d="M 354 227.91071959906495 C 356.664 227.91071959906495 356.664 231.91071959906495 354 231.91071959906495 C 351.336 231.91071959906495 351.336 227.91071959906495 354 227.91071959906495 Z"></path><path fill="#337AB7" d="M 341 226.12162063494995 C 343.664 226.12162063494995 343.664 230.12162063494995 341 230.12162063494995 C 338.336 230.12162063494995 338.336 226.12162063494995 341 226.12162063494995 Z"></path><path fill="#337AB7" d="M 329 225.1118888844584 C 331.664 225.1118888844584 331.664 229.1118888844584 329 229.1118888844584 C 326.336 229.1118888844584 326.336 225.1118888844584 329 225.1118888844584 Z"></path><path fill="#337AB7" d="M 316 224.98863705775037 C 318.664 224.98863705775037 318.664 228.98863705775037 316 228.98863705775037 C 313.336 228.98863705775037 313.336 224.98863705775037 316 224.98863705775037 Z"></path><path fill="#337AB7" d="M 304 223.55601067110203 C 306.664 223.55601067110203 306.664 227.55601067110203 304 227.55601067110203 C 301.336 227.55601067110203 301.336 223.55601067110203 304 223.55601067110203 Z"></path><path fill="#337AB7" d="M 292 226.2555848031485 C 294.664 226.2555848031485 294.664 230.2555848031485 292 230.2555848031485 C 289.336 230.2555848031485 289.336 226.2555848031485 292 226.2555848031485 Z"></path><path fill="#337AB7" d="M 279 230.23731645464235 C 281.664 230.23731645464235 281.664 234.23731645464235 279 234.23731645464235 C 276.336 234.23731645464235 276.336 230.23731645464235 279 230.23731645464235 Z"></path><path fill="#337AB7" d="M 267 228.79586915752262 C 269.664 228.79586915752262 269.664 232.79586915752262 267 232.79586915752262 C 264.336 232.79586915752262 264.336 228.79586915752262 267 228.79586915752262 Z"></path><path fill="#337AB7" d="M 254 228.6715288586656 C 256.664 228.6715288586656 256.664 232.6715288586656 254 232.6715288586656 C 251.336 232.6715288586656 251.336 228.6715288586656 254 228.6715288586656 Z"></path><path fill="#337AB7" d="M 242 228.8365693107995 C 244.664 228.8365693107995 244.664 232.8365693107995 242 232.8365693107995 C 239.336 232.8365693107995 239.336 228.8365693107995 242 228.8365693107995 Z"></path><path fill="#337AB7" d="M 229 226.06625728785627 C 231.664 226.06625728785627 231.664 230.06625728785627 229 230.06625728785627 C 226.336 230.06625728785627 226.336 226.06625728785627 229 226.06625728785627 Z"></path><path fill="#337AB7" d="M 217 225.89403676141504 C 219.664 225.89403676141504 219.664 229.89403676141504 217 229.89403676141504 C 214.336 229.89403676141504 214.336 225.89403676141504 217 225.89403676141504 Z"></path><path fill="#337AB7" d="M 205 225.6502157159943 C 207.664 225.6502157159943 207.664 229.6502157159943 205 229.6502157159943 C 202.336 229.6502157159943 202.336 225.6502157159943 205 225.6502157159943 Z"></path><path fill="#337AB7" d="M 192 225.64882283775367 C 194.664 225.64882283775367 194.664 229.64882283775367 192 229.64882283775367 C 189.336 229.64882283775367 189.336 225.64882283775367 192 225.64882283775367 Z"></path><path fill="#337AB7" d="M 180 220.5714102516249 C 182.664 220.5714102516249 182.664 224.5714102516249 180 224.5714102516249 C 177.336 224.5714102516249 177.336 220.5714102516249 180 220.5714102516249 Z"></path><path fill="#337AB7" d="M 167 218.88166571144154 C 169.664 218.88166571144154 169.664 222.88166571144154 167 222.88166571144154 C 164.336 222.88166571144154 164.336 218.88166571144154 167 218.88166571144154 Z"></path><path fill="#337AB7" d="M 155 213.42516694689849 C 157.664 213.42516694689849 157.664 217.42516694689849 155 217.42516694689849 C 152.336 217.42516694689849 152.336 213.42516694689849 155 213.42516694689849 Z"></path><path fill="#337AB7" d="M 142 214.66460032443442 C 144.664 214.66460032443442 144.664 218.66460032443442 142 218.66460032443442 C 139.336 218.66460032443442 139.336 214.66460032443442 142 214.66460032443442 Z"></path><path fill="#337AB7" d="M 130 212.99241499127393 C 132.664 212.99241499127393 132.664 216.99241499127393 130 216.99241499127393 C 127.336 216.99241499127393 127.336 212.99241499127393 130 212.99241499127393 Z"></path><path fill="#337AB7" d="M 118 211.58134045034288 C 120.664 211.58134045034288 120.664 215.58134045034288 118 215.58134045034288 C 115.336 215.58134045034288 115.336 211.58134045034288 118 211.58134045034288 Z"></path><path fill="#337AB7" d="M 105 211.51525440958986 C 107.664 211.51525440958986 107.664 215.51525440958986 105 215.51525440958986 C 102.336 215.51525440958986 102.336 211.51525440958986 105 211.51525440958986 Z"></path><path fill="#337AB7" d="M 93 214.58048105749916 C 95.664 214.58048105749916 95.664 218.58048105749916 93 218.58048105749916 C 90.336 218.58048105749916 90.336 214.58048105749916 93 214.58048105749916 Z"></path><path fill="#337AB7" d="M 80 217.88335685163352 C 82.664 217.88335685163352 82.664 221.88335685163352 80 221.88335685163352 C 77.336 221.88335685163352 77.336 217.88335685163352 80 217.88335685163352 Z"></path><path fill="#337AB7" d="M 68 223.5045772122166 C 70.664 223.5045772122166 70.664 227.5045772122166 68 227.5045772122166 C 65.336 227.5045772122166 65.336 223.5045772122166 68 223.5045772122166 Z"></path><path fill="#337AB7" d="M 55 225.73372542072659 C 57.664 225.73372542072659 57.664 229.73372542072659 55 229.73372542072659 C 52.336 229.73372542072659 52.336 225.73372542072659 55 225.73372542072659 Z"></path><path fill="#337AB7" d="M 43 226.50899456871798 C 45.664 226.50899456871798 45.664 230.50899456871798 43 230.50899456871798 C 40.336 230.50899456871798 40.336 226.50899456871798 43 226.50899456871798 Z"></path><path fill="#337AB7" d="M 31 227.5698193432699 C 33.664 227.5698193432699 33.664 231.5698193432699 31 231.5698193432699 C 28.336 231.5698193432699 28.336 227.5698193432699 31 227.5698193432699 Z"></path><path fill="#337AB7" d="M 18 226.60819372769674 C 20.664 226.60819372769674 20.664 230.60819372769674 18 230.60819372769674 C 15.336 230.60819372769674 15.336 226.60819372769674 18 226.60819372769674 Z"></path><path fill="#337AB7" d="M 6 230.4263053089661 C 8.664 230.4263053089661 8.664 234.4263053089661 6 234.4263053089661 C 3.336 234.4263053089661 3.336 230.4263053089661 6 230.4263053089661 Z"></path></g><g class="highcharts-series" visibility="visible"  transform="translate(68,59) scale(1 1)" clip-path="url(#highcharts-11)"><path fill="none" d="M 6.214285714285714 242 C 6.214285714285714 242 13.671428571428573 242 18.642857142857142 242 C 23.614285714285717 242 26.1 242 31.071428571428573 242 C 36.042857142857144 242 38.528571428571425 242 43.5 242 C 48.471428571428575 242 50.957142857142856 242 55.92857142857143 242 C 60.9 242 63.385714285714286 242 68.35714285714286 242 C 73.32857142857142 242 75.81428571428572 242 80.78571428571428 242 C 85.75714285714284 242 88.24285714285713 242 93.21428571428571 242 C 98.18571428571428 242 100.67142857142858 242 105.64285714285714 242 C 110.61428571428571 242 113.1 242 118.07142857142857 242 C 123.04285714285716 242 125.52857142857142 242 130.5 242 C 135.4714285714286 242 137.95714285714286 242 142.92857142857144 242 C 147.9 242 150.3857142857143 242 155.35714285714286 242 C 160.32857142857142 242 162.81428571428575 242 167.7857142857143 242 C 172.75714285714287 242 175.24285714285716 242 180.21428571428572 242 C 185.18571428571428 242 187.6714285714286 242 192.64285714285717 242 C 197.61428571428573 242 200.10000000000002 242 205.07142857142858 242 C 210.04285714285714 242 212.5285714285714 242 217.5 242 C 222.4714285714286 242 224.95714285714286 242 229.92857142857144 242 C 234.9 242 237.3857142857143 242 242.35714285714286 242 C 247.32857142857142 242 249.81428571428575 242 254.7857142857143 242 C 259.75714285714287 242 262.24285714285713 242 267.2142857142857 242 C 272.1857142857143 242 274.67142857142863 242 279.64285714285717 242 C 284.61428571428576 242 287.1 242 292.0714285714286 242 C 297.04285714285714 242 299.52857142857147 242 304.5 242 C 309.4714285714286 242 311.95714285714286 242 316.92857142857144 242 C 321.9 242 324.3857142857143 242 329.3571428571429 242 C 334.3285714285715 242 336.81428571428575 241.49359644288842 341.7857142857143 241.18303268260874 C 346.75714285714287 240.87246892232906 349.24285714285713 240.86301563927262 354.2142857142857 240.44718119860156 C 359.1857142857143 240.03134675793046 361.67142857142863 239.7317380200014 366.64285714285717 239.10386047925329 C 371.61428571428576 238.47598293850518 374.1 237.88817523698037 379.0714285714286 237.3077934948609 C 384.04285714285714 236.72741175274143 386.52857142857147 236.52777076787845 391.5 236.201951768656 C 396.4714285714286 235.87613276943353 398.95714285714286 236.10344876949745 403.92857142857144 235.6786984987487 C 408.9 235.25394822799996 411.3857142857143 235.6786984987487 416.3571428571429 234.0782004149123 C 421.3285714285715 232.47770233107588 423.8142857142857 229.92437394888984 428.7857142857143 218.05824613265833 C 433.75714285714287 206.19211831642681 436.24285714285713 192.25697363425556 441.2142857142857 174.74756133375473 C 446.1857142857143 157.23814903325388 448.67142857142863 143.5419291404922 453.64285714285717 130.5111846301541 C 458.61428571428576 117.48044011981588 461.1 114.47953513852801 466.0714285714286 109.59383878206395 C 471.04285714285714 104.7081424255999 473.52857142857147 109.59383878206395 478.5 104.7081424255999 C 483.47142857142865 99.82244606913585 485.95714285714286 92.82532653832881 490.92857142857144 82.43662831142501 C 495.9 72.04793008452133 498.3857142857143 62.26789157072015 503.3571428571429 52.76465129108118 C 508.32857142857137 43.261411011442426 515.7857142857142 34.9204269132307 515.7857142857142 34.9204269132307" stroke="#ff0000" stroke-width="2"  stroke-linejoin="round" stroke-linecap="round"></path></g><g class="highcharts-markers" visibility="visible"  transform="translate(68,59) scale(1 1)" clip-path="none"><path fill="#ff0000" d="M 515 32.9204269132307 C 517.664 32.9204269132307 517.664 36.9204269132307 515 36.9204269132307 C 512.336 36.9204269132307 512.336 32.9204269132307 515 32.9204269132307 Z"></path><path fill="#ff0000" d="M 503 50.76465129108118 C 505.664 50.76465129108118 505.664 54.76465129108118 503 54.76465129108118 C 500.336 54.76465129108118 500.336 50.76465129108118 503 50.76465129108118 Z"></path><path fill="#ff0000" d="M 490 80.43662831142501 C 492.664 80.43662831142501 492.664 84.43662831142501 490 84.43662831142501 C 487.336 84.43662831142501 487.336 80.43662831142501 490 80.43662831142501 Z"></path><path fill="#ff0000" d="M 478 102.7081424255999 C 480.664 102.7081424255999 480.664 106.7081424255999 478 106.7081424255999 C 475.336 106.7081424255999 475.336 102.7081424255999 478 102.7081424255999 Z"></path><path fill="#ff0000" d="M 466 107.59383878206395 C 468.664 107.59383878206395 468.664 111.59383878206395 466 111.59383878206395 C 463.336 111.59383878206395 463.336 107.59383878206395 466 107.59383878206395 Z"></path><path fill="#ff0000" d="M 453 128.5111846301541 C 455.664 128.5111846301541 455.664 132.5111846301541 453 132.5111846301541 C 450.336 132.5111846301541 450.336 128.5111846301541 453 128.5111846301541 Z"></path><path fill="#ff0000" d="M 441 172.74756133375473 C 443.664 172.74756133375473 443.664 176.74756133375473 441 176.74756133375473 C 438.336 176.74756133375473 438.336 172.74756133375473 441 172.74756133375473 Z"></path><path fill="#ff0000" d="M 428 216.05824613265833 C 430.664 216.05824613265833 430.664 220.05824613265833 428 220.05824613265833 C 425.336 220.05824613265833 425.336 216.05824613265833 428 216.05824613265833 Z"></path><path fill="#ff0000" d="M 416 232.0782004149123 C 418.664 232.0782004149123 418.664 236.0782004149123 416 236.0782004149123 C 413.336 236.0782004149123 413.336 232.0782004149123 416 232.0782004149123 Z"></path><path fill="#ff0000" d="M 403 233.6786984987487 C 405.664 233.6786984987487 405.664 237.6786984987487 403 237.6786984987487 C 400.336 237.6786984987487 400.336 233.6786984987487 403 233.6786984987487 Z"></path><path fill="#ff0000" d="M 391 234.201951768656 C 393.664 234.201951768656 393.664 238.201951768656 391 238.201951768656 C 388.336 238.201951768656 388.336 234.201951768656 391 234.201951768656 Z"></path><path fill="#ff0000" d="M 379 235.3077934948609 C 381.664 235.3077934948609 381.664 239.3077934948609 379 239.3077934948609 C 376.336 239.3077934948609 376.336 235.3077934948609 379 235.3077934948609 Z"></path><path fill="#ff0000" d="M 366 237.10386047925329 C 368.664 237.10386047925329 368.664 241.10386047925329 366 241.10386047925329 C 363.336 241.10386047925329 363.336 237.10386047925329 366 237.10386047925329 Z"></path><path fill="#ff0000" d="M 354 238.44718119860156 C 356.664 238.44718119860156 356.664 242.44718119860156 354 242.44718119860156 C 351.336 242.44718119860156 351.336 238.44718119860156 354 238.44718119860156 Z"></path><path fill="#ff0000" d="M 341 239.18303268260874 C 343.664 239.18303268260874 343.664 243.18303268260874 341 243.18303268260874 C 338.336 243.18303268260874 338.336 239.18303268260874 341 239.18303268260874 Z"></path><path fill="#ff0000" d="M 329 240 C 331.664 240 331.664 244 329 244 C 326.336 244 326.336 240 329 240 Z"></path><path fill="#ff0000" d="M 316 240 C 318.664 240 318.664 244 316 244 C 313.336 244 313.336 240 316 240 Z"></path><path fill="#ff0000" d="M 304 240 C 306.664 240 306.664 244 304 244 C 301.336 244 301.336 240 304 240 Z"></path><path fill="#ff0000" d="M 292 240 C 294.664 240 294.664 244 292 244 C 289.336 244 289.336 240 292 240 Z"></path><path fill="#ff0000" d="M 279 240 C 281.664 240 281.664 244 279 244 C 276.336 244 276.336 240 279 240 Z"></path><path fill="#ff0000" d="M 267 240 C 269.664 240 269.664 244 267 244 C 264.336 244 264.336 240 267 240 Z"></path><path fill="#ff0000" d="M 254 240 C 256.664 240 256.664 244 254 244 C 251.336 244 251.336 240 254 240 Z"></path><path fill="#ff0000" d="M 242 240 C 244.664 240 244.664 244 242 244 C 239.336 244 239.336 240 242 240 Z"></path><path fill="#ff0000" d="M 229 240 C 231.664 240 231.664 244 229 244 C 226.336 244 226.336 240 229 240 Z"></path><path fill="#ff0000" d="M 217 240 C 219.664 240 219.664 244 217 244 C 214.336 244 214.336 240 217 240 Z"></path><path fill="#ff0000" d="M 205 240 C 207.664 240 207.664 244 205 244 C 202.336 244 202.336 240 205 240 Z"></path><path fill="#ff0000" d="M 192 240 C 194.664 240 194.664 244 192 244 C 189.336 244 189.336 240 192 240 Z"></path><path fill="#ff0000" d="M 180 240 C 182.664 240 182.664 244 180 244 C 177.336 244 177.336 240 180 240 Z"></path><path fill="#ff0000" d="M 167 240 C 169.664 240 169.664 244 167 244 C 164.336 244 164.336 240 167 240 Z"></path><path fill="#ff0000" d="M 155 240 C 157.664 240 157.664 244 155 244 C 152.336 244 152.336 240 155 240 Z"></path><path fill="#ff0000" d="M 142 240 C 144.664 240 144.664 244 142 244 C 139.336 244 139.336 240 142 240 Z"></path><path fill="#ff0000" d="M 130 240 C 132.664 240 132.664 244 130 244 C 127.336 244 127.336 240 130 240 Z"></path><path fill="#ff0000" d="M 118 240 C 120.664 240 120.664 244 118 244 C 115.336 244 115.336 240 118 240 Z"></path><path fill="#ff0000" d="M 105 240 C 107.664 240 107.664 244 105 244 C 102.336 244 102.336 240 105 240 Z"></path><path fill="#ff0000" d="M 93 240 C 95.664 240 95.664 244 93 244 C 90.336 244 90.336 240 93 240 Z"></path><path fill="#ff0000" d="M 80 240 C 82.664 240 82.664 244 80 244 C 77.336 244 77.336 240 80 240 Z"></path><path fill="#ff0000" d="M 68 240 C 70.664 240 70.664 244 68 244 C 65.336 244 65.336 240 68 240 Z"></path><path fill="#ff0000" d="M 55 240 C 57.664 240 57.664 244 55 244 C 52.336 244 52.336 240 55 240 Z"></path><path fill="#ff0000" d="M 43 240 C 45.664 240 45.664 244 43 244 C 40.336 244 40.336 240 43 240 Z"></path><path fill="#ff0000" d="M 31 240 C 33.664 240 33.664 244 31 244 C 28.336 244 28.336 240 31 240 Z"></path><path fill="#ff0000" d="M 18 240 C 20.664 240 20.664 244 18 244 C 15.336 244 15.336 240 18 240 Z"></path><path fill="#ff0000" d="M 6 240 C 8.664 240 8.664 244 6 244 C 3.336 244 3.336 240 6 240 Z"></path></g></g><text x="300" text-anchor="middle" class="highcharts-title"  style="color:#333333;font-size:18px;fill:#333333;width:536px;" y="24"><tspan style="font-weight:bold">Kohl with $p=NN · Kohl with $p=NE</tspan><tspan dx="0"> – Verlaufskurve</tspan></text><text x="300" text-anchor="middle" class="highcharts-subtitle"  style="color:#555555;fill:#555555;width:536px;" y="44"><tspan>Basis: Referenz- und Zeitungskorpora (aggregiert, frei)</tspan></text><g class="highcharts-legend"  transform="translate(112,360)"><g ><g><g class="highcharts-legend-item"  transform="translate(8,3)"><path fill="none" d="M 0 11 L 16 11" stroke="#337AB7" stroke-width="2"></path><path fill="#337AB7" d="M 8 9 C 10.664 9 10.664 13 8 13 C 5.336 13 5.336 9 8 9 Z"></path><text x="21" style="color:#333333;font-size:12px;font-weight:bold;cursor:pointer;fill:#333333;" text-anchor="start"  y="15"><tspan>Kohl with $p=NN: Gesamt</tspan></text></g><g class="highcharts-legend-item"  transform="translate(198.015625,3)"><path fill="none" d="M 0 11 L 16 11" stroke="#ff0000" stroke-width="2"></path><path fill="#ff0000" d="M 8 9 C 10.664 9 10.664 13 8 13 C 5.336 13 5.336 9 8 9 Z"></path><text x="21" y="15" style="color:#333333;font-size:12px;font-weight:bold;cursor:pointer;fill:#333333;" text-anchor="start" ><tspan>Kohl with $p=NE: Gesamt</tspan></text></g></g></g></g><g class="highcharts-axis-labels highcharts-xaxis-labels" ><text x="78.21428571428571" style="color:#606060;cursor:default;font-size:12px;font-family:verdana, sans-serif;margin:10px;padding:10px;fill:#606060;width:400px;text-overflow:ellipsis;" text-anchor="end" transform="translate(0,0) rotate(-90 78.21428571428571 313)" y="313" opacity="1"><tspan>1600</tspan></text><text x="103.07142857142857" style="color:#606060;cursor:default;font-size:12px;font-family:verdana, sans-serif;margin:10px;padding:10px;fill:#606060;width:400px;text-overflow:ellipsis;" text-anchor="end" transform="translate(0,0) rotate(-90 103.07142857142857 313)" y="313" opacity="1"><tspan>1620</tspan></text><text x="127.92857142857143" style="color:#606060;cursor:default;font-size:12px;font-family:verdana, sans-serif;margin:10px;padding:10px;fill:#606060;width:400px;text-overflow:ellipsis;" text-anchor="end" transform="translate(0,0) rotate(-90 127.92857142857143 313)" y="313" opacity="1"><tspan>1640</tspan></text><text x="152.78571428571428" style="color:#606060;cursor:default;font-size:12px;font-family:verdana, sans-serif;margin:10px;padding:10px;fill:#606060;width:400px;text-overflow:ellipsis;" text-anchor="end" transform="translate(0,0) rotate(-90 152.78571428571428 313)" y="313" opacity="1"><tspan>1660</tspan></text><text x="177.64285714285714" style="color:#606060;cursor:default;font-size:12px;font-family:verdana, sans-serif;margin:10px;padding:10px;fill:#606060;width:400px;text-overflow:ellipsis;" text-anchor="end" transform="translate(0,0) rotate(-90 177.64285714285714 313)" y="313" opacity="1"><tspan>1680</tspan></text><text x="202.5" style="color:#606060;cursor:default;font-size:12px;font-family:verdana, sans-serif;margin:10px;padding:10px;fill:#606060;width:400px;text-overflow:ellipsis;" text-anchor="end" transform="translate(0,0) rotate(-90 202.5 313)" y="313" opacity="1"><tspan>1700</tspan></text><text x="227.35714285714286" style="color:#606060;cursor:default;font-size:12px;font-family:verdana, sans-serif;margin:10px;padding:10px;fill:#606060;width:400px;text-overflow:ellipsis;" text-anchor="end" transform="translate(0,0) rotate(-90 227.35714285714286 313)" y="313" opacity="1"><tspan>1720</tspan></text><text x="252.21428571428572" style="color:#606060;cursor:default;font-size:12px;font-family:verdana, sans-serif;margin:10px;padding:10px;fill:#606060;width:400px;text-overflow:ellipsis;" text-anchor="end" transform="translate(0,0) rotate(-90 252.21428571428572 313)" y="313" opacity="1"><tspan>1740</tspan></text><text x="277.07142857142856" style="color:#606060;cursor:default;font-size:12px;font-family:verdana, sans-serif;margin:10px;padding:10px;fill:#606060;width:400px;text-overflow:ellipsis;" text-anchor="end" transform="translate(0,0) rotate(-90 277.07142857142856 313)" y="313" opacity="1"><tspan>1760</tspan></text><text x="301.92857142857144" style="color:#606060;cursor:default;font-size:12px;font-family:verdana, sans-serif;margin:10px;padding:10px;fill:#606060;width:400px;text-overflow:ellipsis;" text-anchor="end" transform="translate(0,0) rotate(-90 301.92857142857144 313)" y="313" opacity="1"><tspan>1780</tspan></text><text x="326.78571428571433" style="color:#606060;cursor:default;font-size:12px;font-family:verdana, sans-serif;margin:10px;padding:10px;fill:#606060;width:400px;text-overflow:ellipsis;" text-anchor="end" transform="translate(0,0) rotate(-90 326.78571428571433 313)" y="313" opacity="1"><tspan>1800</tspan></text><text x="351.64285714285717" style="color:#606060;cursor:default;font-size:12px;font-family:verdana, sans-serif;margin:10px;padding:10px;fill:#606060;width:400px;text-overflow:ellipsis;" text-anchor="end" transform="translate(0,0) rotate(-90 351.64285714285717 313)" y="313" opacity="1"><tspan>1820</tspan></text><text x="376.5" style="color:#606060;cursor:default;font-size:12px;font-family:verdana, sans-serif;margin:10px;padding:10px;fill:#606060;width:400px;text-overflow:ellipsis;" text-anchor="end" transform="translate(0,0) rotate(-90 376.5 313)" y="313" opacity="1"><tspan>1840</tspan></text><text x="401.3571428571429" style="color:#606060;cursor:default;font-size:12px;font-family:verdana, sans-serif;margin:10px;padding:10px;fill:#606060;width:400px;text-overflow:ellipsis;" text-anchor="end" transform="translate(0,0) rotate(-90 401.3571428571429 313)" y="313" opacity="1"><tspan>1860</tspan></text><text x="426.2142857142857" style="color:#606060;cursor:default;font-size:12px;font-family:verdana, sans-serif;margin:10px;padding:10px;fill:#606060;width:400px;text-overflow:ellipsis;" text-anchor="end" transform="translate(0,0) rotate(-90 426.2142857142857 313)" y="313" opacity="1"><tspan>1880</tspan></text><text x="451.0714285714286" style="color:#606060;cursor:default;font-size:12px;font-family:verdana, sans-serif;margin:10px;padding:10px;fill:#606060;width:400px;text-overflow:ellipsis;" text-anchor="end" transform="translate(0,0) rotate(-90 451.0714285714286 313)" y="313" opacity="1"><tspan>1900</tspan></text><text x="475.92857142857144" style="color:#606060;cursor:default;font-size:12px;font-family:verdana, sans-serif;margin:10px;padding:10px;fill:#606060;width:400px;text-overflow:ellipsis;" text-anchor="end" transform="translate(0,0) rotate(-90 475.92857142857144 313)" y="313" opacity="1"><tspan>1920</tspan></text><text x="500.7857142857143" style="color:#606060;cursor:default;font-size:12px;font-family:verdana, sans-serif;margin:10px;padding:10px;fill:#606060;width:400px;text-overflow:ellipsis;" text-anchor="end" transform="translate(0,0) rotate(-90 500.7857142857143 313)" y="313" opacity="1"><tspan>1940</tspan></text><text x="525.6428571428571" style="color:#606060;cursor:default;font-size:12px;font-family:verdana, sans-serif;margin:10px;padding:10px;fill:#606060;width:400px;text-overflow:ellipsis;" text-anchor="end" transform="translate(0,0) rotate(-90 525.6428571428571 313)" y="313" opacity="1"><tspan>1960</tspan></text><text x="550.5" style="color:#606060;cursor:default;font-size:12px;font-family:verdana, sans-serif;margin:10px;padding:10px;fill:#606060;width:400px;text-overflow:ellipsis;" text-anchor="end" transform="translate(0,0) rotate(-90 550.5 313)" y="313" opacity="1"><tspan>1980</tspan></text><text x="575.3571428571429" style="color:#606060;cursor:default;font-size:12px;font-family:verdana, sans-serif;margin:10px;padding:10px;fill:#606060;width:400px;text-overflow:ellipsis;" text-anchor="end" transform="translate(0,0) rotate(-90 575.3571428571429 313)" y="313" opacity="1"><tspan>2000</tspan></text></g><g class="highcharts-axis-labels highcharts-yaxis-labels" ><text x="53" style="color:#606060;cursor:default;font-size:11px;fill:#606060;width:188px;text-overflow:clip;" text-anchor="end" transform="translate(0,0)" y="306" opacity="1">0</text><text x="53" style="color:#606060;cursor:default;font-size:11px;fill:#606060;width:188px;text-overflow:clip;" text-anchor="end" transform="translate(0,0)" y="246" opacity="1">25</text><text x="53" style="color:#606060;cursor:default;font-size:11px;fill:#606060;width:188px;text-overflow:clip;" text-anchor="end" transform="translate(0,0)" y="185" opacity="1">50</text><text x="53" style="color:#606060;cursor:default;font-size:11px;fill:#606060;width:188px;text-overflow:clip;" text-anchor="end" transform="translate(0,0)" y="125" opacity="1">75</text><text x="53" style="color:#606060;cursor:default;font-size:11px;fill:#606060;width:188px;text-overflow:clip;" text-anchor="end" transform="translate(0,0)" y="64" opacity="1">100</text></g><g class="highcharts-tooltip"  style="cursor:default;padding:0;white-space:nowrap;" transform="translate(0,-9999)"><path fill="none" d="M 3.5 0.5 L 13.5 0.5 C 16.5 0.5 16.5 0.5 16.5 3.5 L 16.5 13.5 C 16.5 16.5 16.5 16.5 13.5 16.5 L 3.5 16.5 C 0.5 16.5 0.5 16.5 0.5 13.5 L 0.5 3.5 C 0.5 0.5 0.5 0.5 3.5 0.5"  stroke="black" stroke-opacity="0.049999999999999996" stroke-width="5" transform="translate(1, 1)"></path><path fill="none" d="M 3.5 0.5 L 13.5 0.5 C 16.5 0.5 16.5 0.5 16.5 3.5 L 16.5 13.5 C 16.5 16.5 16.5 16.5 13.5 16.5 L 3.5 16.5 C 0.5 16.5 0.5 16.5 0.5 13.5 L 0.5 3.5 C 0.5 0.5 0.5 0.5 3.5 0.5"  stroke="black" stroke-opacity="0.09999999999999999" stroke-width="3" transform="translate(1, 1)"></path><path fill="none" d="M 3.5 0.5 L 13.5 0.5 C 16.5 0.5 16.5 0.5 16.5 3.5 L 16.5 13.5 C 16.5 16.5 16.5 16.5 13.5 16.5 L 3.5 16.5 C 0.5 16.5 0.5 16.5 0.5 13.5 L 0.5 3.5 C 0.5 0.5 0.5 0.5 3.5 0.5"  stroke="black" stroke-opacity="0.15" stroke-width="1" transform="translate(1, 1)"></path><path fill="rgb(249, 249, 249)" fill-opacity=" .85" d="M 3.5 0.5 L 13.5 0.5 C 16.5 0.5 16.5 0.5 16.5 3.5 L 16.5 13.5 C 16.5 16.5 16.5 16.5 13.5 16.5 L 3.5 16.5 C 0.5 16.5 0.5 16.5 0.5 13.5 L 0.5 3.5 C 0.5 0.5 0.5 0.5 3.5 0.5"></path><text x="8"  style="font-size:12px;color:#333333;fill:#333333;" y="20"></text></g></svg>