<?xml version="1.0" standalone="no"?><!DOCTYPE svg PUBLIC "-//W3C//DTD SVG 1.1//EN" "http://www.w3.org/Graphics/SVG/1.1/DTD/svg11.dtd"><svg xmlns:xlink="http://www.w3.org/1999/xlink" version="1.1" style="font-family:'lucida grande', 'lucida sans unicode', arial, helvetica, sans-serif;font-size:12px;" xmlns="http://www.w3.org/2000/svg" width="600" height="400"><desc>Created with Highcharts 4.1.7</desc><defs><clipPath id="highcharts-7"><rect x="0" y="0" width="519" height="239"></rect></clipPath></defs><rect x="0" y="0" width="600" height="400" strokeWidth="0" fill="#FFFFFF" class=" highcharts-background"></rect><g class="highcharts-grid" ></g><g class="highcharts-grid" ><path fill="none" d="M 71 300.5 L 590 300.5" stroke="#D8D8D8" stroke-width="1"  opacity="1"></path><path fill="none" d="M 71 240.5 L 590 240.5" stroke="#D8D8D8" stroke-width="1"  opacity="1"></path><path fill="none" d="M 71 181.5 L 590 181.5" stroke="#D8D8D8" stroke-width="1"  opacity="1"></path><path fill="none" d="M 71 121.5 L 590 121.5" stroke="#D8D8D8" stroke-width="1"  opacity="1"></path><path fill="none" d="M 71 60.5 L 590 60.5" stroke="#D8D8D8" stroke-width="1"  opacity="1"></path></g><g class="highcharts-axis" ><path fill="none" d="M 71 300.5 L 590 300.5" stroke="#C0D0E0" stroke-width="1"  visibility="visible"></path></g><g class="highcharts-axis" ><text x="25.140625"  text-anchor="middle" transform="translate(0,0) rotate(270 25.140625 180.5)" class=" highcharts-yaxis-title" style="color:#707070;fill:#707070;" visibility="visible" y="180.5"><tspan>Freq. (pro Million Tokens)</tspan></text></g><g class="highcharts-series-group" ><g class="highcharts-series" visibility="visible"  transform="translate(71,61) scale(1 1)" clip-path="url(#highcharts-7)"><path fill="none" d="M 6.178571428571429 229.54498747455744 C 6.178571428571429 229.54498747455744 13.592857142857142 225.77420785503935 18.535714285714285 225.77420785503935 C 23.478571428571428 225.77420785503935 25.95 226.72391249190704 30.892857142857146 226.72391249190704 C 35.83571428571429 226.72391249190704 38.30714285714286 226.03890492322796 43.25 225.67623843770082 C 48.19285714285714 225.31357195217367 50.66428571428572 225.5040145669191 55.60714285714286 224.9105800642713 C 60.55 224.3171455616235 63.02142857142858 224.25967591455543 67.96428571428572 222.70906592446184 C 72.90714285714287 221.15845593436825 75.37857142857143 218.920223486512 80.32142857142857 217.15753011380335 C 85.2642857142857 215.3948367410947 87.7357142857143 215.1534308655867 92.67857142857143 213.89559906091858 C 97.62142857142858 212.63776725625044 100.09285714285716 210.86837109046272 105.03571428571429 210.86837109046272 C 109.97857142857144 210.86837109046272 112.45 210.86837109046272 117.39285714285715 210.93363788277665 C 122.33571428571429 210.99890467509059 124.80714285714286 211.71821223525993 129.75 212.3272197641094 C 134.69285714285715 212.93622729295888 137.1642857142857 213.97867552702408 142.10714285714286 213.97867552702408 C 147.05 213.97867552702408 149.52142857142857 212.75460702606915 154.4642857142857 212.75460702606915 C 159.40714285714284 212.75460702606915 161.87857142857143 216.7319325416058 166.82142857142856 218.14346324394432 C 171.76428571428568 219.55499394628282 174.23571428571427 218.47560718801915 179.17857142857142 219.8122605377618 C 184.12142857142857 221.14891388750442 186.59285714285716 224.82535438150256 191.53571428571428 224.82672999265756 C 196.47857142857143 224.82810560381256 198.95 224.82672999265756 203.89285714285714 224.82810560381256 C 208.83571428571432 224.82948121496756 211.30714285714285 224.9867272679471 216.25 225.06890407429006 C 221.19285714285715 225.15108088063303 223.66428571428568 225.06890407429006 228.60714285714286 225.23898963552747 C 233.55 225.4090751967649 236.02142857142857 227.97495894744247 240.96428571428572 227.97495894744247 C 245.90714285714284 227.97495894744247 248.37857142857146 227.81196445132676 253.32142857142858 227.81196445132676 C 258.26428571428573 227.81196445132676 260.7357142857143 227.81196445132676 265.67857142857144 227.93476334152027 C 270.6214285714286 228.05756223171377 273.09285714285716 229.35834145727074 278.03571428571433 229.35834145727074 C 282.97857142857146 229.35834145727074 285.45000000000005 226.74566605126333 290.39285714285717 225.42597011550617 C 295.3357142857143 224.10627417974905 297.8071428571428 222.75986177848506 302.75 222.75986177848506 C 307.6928571428572 222.75986177848506 310.1642857142857 224.05300442239306 315.1071428571429 224.17472833389397 C 320.05 224.29645224539487 322.5214285714286 224.23403250482116 327.4642857142857 224.29645224539487 C 332.40714285714284 224.35887198596856 334.8785714285715 224.29645224539487 339.8214285714286 224.48682703676252 C 344.76428571428573 224.67720182813017 347.2357142857143 225.5270177299268 352.17857142857144 225.5270177299268 C 357.12142857142857 225.5270177299268 359.5928571428572 224.78627923618447 364.53571428571433 224.78627923618447 C 369.47857142857146 224.78627923618447 371.95000000000005 226.77191492307244 376.89285714285717 227.95357281524758 C 381.8357142857143 229.1352307074227 384.30714285714294 230.4163695982523 389.25000000000006 230.69456869706002 C 394.1928571428572 230.97276779586775 396.66428571428577 230.97276779586775 401.6071428571429 230.97276779586775 C 406.55 230.97276779586775 409.0214285714286 230.97276779586775 413.9642857142857 230.6657685312368 C 418.90714285714284 230.35876926660586 421.3785714285715 226.6036753029855 426.3214285714286 214.7627470030224 C 431.2642857142857 202.92181870305944 433.7357142857143 188.90214937706543 438.67857142857144 171.4611270314217 C 443.6214285714286 154.0201046857778 446.09285714285727 140.49698981046575 451.03571428571433 127.5576352748033 C 455.97857142857146 114.6182807391407 458.45 111.5980890675273 463.39285714285717 106.76435435310916 C 468.3357142857143 101.93061963869101 470.80714285714294 106.76435435310916 475.75000000000006 101.93061963869101 C 480.69285714285724 97.09688492427287 483.16428571428577 90.0614025175149 488.1071428571429 79.68861734745016 C 493.05 69.3158321773854 495.5214285714286 59.51667684160587 500.4642857142858 50.066693788367274 C 505.40714285714296 40.61671073512868 512.8214285714286 32.43870208125719 512.8214285714286 32.43870208125719" stroke="#337AB7" stroke-width="2"  stroke-linejoin="round" stroke-linecap="round"></path></g><g class="highcharts-markers" visibility="visible"  transform="translate(71,61) scale(1 1)" clip-path="none"><path fill="#337AB7" d="M 512 30.43870208125719 C 514.664 30.43870208125719 514.664 34.43870208125719 512 34.43870208125719 C 509.336 34.43870208125719 509.336 30.43870208125719 512 30.43870208125719 Z"></path><path fill="#337AB7" d="M 500 48.066693788367274 C 502.664 48.066693788367274 502.664 52.066693788367274 500 52.066693788367274 C 497.336 52.066693788367274 497.336 48.066693788367274 500 48.066693788367274 Z"></path><path fill="#337AB7" d="M 488 77.68861734745016 C 490.664 77.68861734745016 490.664 81.68861734745016 488 81.68861734745016 C 485.336 81.68861734745016 485.336 77.68861734745016 488 77.68861734745016 Z"></path><path fill="#337AB7" d="M 475 99.93061963869101 C 477.664 99.93061963869101 477.664 103.93061963869101 475 103.93061963869101 C 472.336 103.93061963869101 472.336 99.93061963869101 475 99.93061963869101 Z"></path><path fill="#337AB7" d="M 463 104.76435435310916 C 465.664 104.76435435310916 465.664 108.76435435310916 463 108.76435435310916 C 460.336 108.76435435310916 460.336 104.76435435310916 463 104.76435435310916 Z"></path><path fill="#337AB7" d="M 451 125.5576352748033 C 453.664 125.5576352748033 453.664 129.55763527480332 451 129.55763527480332 C 448.336 129.55763527480332 448.336 125.5576352748033 451 125.5576352748033 Z"></path><path fill="#337AB7" d="M 438 169.4611270314217 C 440.664 169.4611270314217 440.664 173.4611270314217 438 173.4611270314217 C 435.336 173.4611270314217 435.336 169.4611270314217 438 169.4611270314217 Z"></path><path fill="#337AB7" d="M 426 212.7627470030224 C 428.664 212.7627470030224 428.664 216.7627470030224 426 216.7627470030224 C 423.336 216.7627470030224 423.336 212.7627470030224 426 212.7627470030224 Z"></path><path fill="#337AB7" d="M 413 228.6657685312368 C 415.664 228.6657685312368 415.664 232.6657685312368 413 232.6657685312368 C 410.336 232.6657685312368 410.336 228.6657685312368 413 228.6657685312368 Z"></path><path fill="#337AB7" d="M 401 228.97276779586775 C 403.664 228.97276779586775 403.664 232.97276779586775 401 232.97276779586775 C 398.336 232.97276779586775 398.336 228.97276779586775 401 228.97276779586775 Z"></path><path fill="#337AB7" d="M 389 228.69456869706002 C 391.664 228.69456869706002 391.664 232.69456869706002 389 232.69456869706002 C 386.336 232.69456869706002 386.336 228.69456869706002 389 228.69456869706002 Z"></path><path fill="#337AB7" d="M 376 225.95357281524758 C 378.664 225.95357281524758 378.664 229.95357281524758 376 229.95357281524758 C 373.336 229.95357281524758 373.336 225.95357281524758 376 225.95357281524758 Z"></path><path fill="#337AB7" d="M 364 222.78627923618447 C 366.664 222.78627923618447 366.664 226.78627923618447 364 226.78627923618447 C 361.336 226.78627923618447 361.336 222.78627923618447 364 222.78627923618447 Z"></path><path fill="#337AB7" d="M 352 223.5270177299268 C 354.664 223.5270177299268 354.664 227.5270177299268 352 227.5270177299268 C 349.336 227.5270177299268 349.336 223.5270177299268 352 223.5270177299268 Z"></path><path fill="#337AB7" d="M 339 222.48682703676252 C 341.664 222.48682703676252 341.664 226.48682703676252 339 226.48682703676252 C 336.336 226.48682703676252 336.336 222.48682703676252 339 222.48682703676252 Z"></path><path fill="#337AB7" d="M 327 222.29645224539487 C 329.664 222.29645224539487 329.664 226.29645224539487 327 226.29645224539487 C 324.336 226.29645224539487 324.336 222.29645224539487 327 222.29645224539487 Z"></path><path fill="#337AB7" d="M 315 222.17472833389397 C 317.664 222.17472833389397 317.664 226.17472833389397 315 226.17472833389397 C 312.336 226.17472833389397 312.336 222.17472833389397 315 222.17472833389397 Z"></path><path fill="#337AB7" d="M 302 220.75986177848506 C 304.664 220.75986177848506 304.664 224.75986177848506 302 224.75986177848506 C 299.336 224.75986177848506 299.336 220.75986177848506 302 220.75986177848506 Z"></path><path fill="#337AB7" d="M 290 223.42597011550617 C 292.664 223.42597011550617 292.664 227.42597011550617 290 227.42597011550617 C 287.336 227.42597011550617 287.336 223.42597011550617 290 223.42597011550617 Z"></path><path fill="#337AB7" d="M 278 227.35834145727074 C 280.664 227.35834145727074 280.664 231.35834145727074 278 231.35834145727074 C 275.336 231.35834145727074 275.336 227.35834145727074 278 227.35834145727074 Z"></path><path fill="#337AB7" d="M 265 225.93476334152027 C 267.664 225.93476334152027 267.664 229.93476334152027 265 229.93476334152027 C 262.336 229.93476334152027 262.336 225.93476334152027 265 225.93476334152027 Z"></path><path fill="#337AB7" d="M 253 225.81196445132676 C 255.664 225.81196445132676 255.664 229.81196445132676 253 229.81196445132676 C 250.336 229.81196445132676 250.336 225.81196445132676 253 225.81196445132676 Z"></path><path fill="#337AB7" d="M 240 225.97495894744247 C 242.664 225.97495894744247 242.664 229.97495894744247 240 229.97495894744247 C 237.336 229.97495894744247 237.336 225.97495894744247 240 225.97495894744247 Z"></path><path fill="#337AB7" d="M 228 223.23898963552747 C 230.664 223.23898963552747 230.664 227.23898963552747 228 227.23898963552747 C 225.336 227.23898963552747 225.336 223.23898963552747 228 223.23898963552747 Z"></path><path fill="#337AB7" d="M 216 223.06890407429006 C 218.664 223.06890407429006 218.664 227.06890407429006 216 227.06890407429006 C 213.336 227.06890407429006 213.336 223.06890407429006 216 223.06890407429006 Z"></path><path fill="#337AB7" d="M 203 222.82810560381256 C 205.664 222.82810560381256 205.664 226.82810560381256 203 226.82810560381256 C 200.336 226.82810560381256 200.336 222.82810560381256 203 222.82810560381256 Z"></path><path fill="#337AB7" d="M 191 222.82672999265756 C 193.664 222.82672999265756 193.664 226.82672999265756 191 226.82672999265756 C 188.336 226.82672999265756 188.336 222.82672999265756 191 222.82672999265756 Z"></path><path fill="#337AB7" d="M 179 217.8122605377618 C 181.664 217.8122605377618 181.664 221.8122605377618 179 221.8122605377618 C 176.336 221.8122605377618 176.336 217.8122605377618 179 217.8122605377618 Z"></path><path fill="#337AB7" d="M 166 216.14346324394432 C 168.664 216.14346324394432 168.664 220.14346324394432 166 220.14346324394432 C 163.336 220.14346324394432 163.336 216.14346324394432 166 216.14346324394432 Z"></path><path fill="#337AB7" d="M 154 210.75460702606915 C 156.664 210.75460702606915 156.664 214.75460702606915 154 214.75460702606915 C 151.336 214.75460702606915 151.336 210.75460702606915 154 210.75460702606915 Z"></path><path fill="#337AB7" d="M 142 211.97867552702408 C 144.664 211.97867552702408 144.664 215.97867552702408 142 215.97867552702408 C 139.336 215.97867552702408 139.336 211.97867552702408 142 211.97867552702408 Z"></path><path fill="#337AB7" d="M 129 210.3272197641094 C 131.664 210.3272197641094 131.664 214.3272197641094 129 214.3272197641094 C 126.336 214.3272197641094 126.336 210.3272197641094 129 210.3272197641094 Z"></path><path fill="#337AB7" d="M 117 208.93363788277665 C 119.664 208.93363788277665 119.664 212.93363788277665 117 212.93363788277665 C 114.336 212.93363788277665 114.336 208.93363788277665 117 208.93363788277665 Z"></path><path fill="#337AB7" d="M 105 208.86837109046272 C 107.664 208.86837109046272 107.664 212.86837109046272 105 212.86837109046272 C 102.336 212.86837109046272 102.336 208.86837109046272 105 208.86837109046272 Z"></path><path fill="#337AB7" d="M 92 211.89559906091858 C 94.664 211.89559906091858 94.664 215.89559906091858 92 215.89559906091858 C 89.336 215.89559906091858 89.336 211.89559906091858 92 211.89559906091858 Z"></path><path fill="#337AB7" d="M 80 215.15753011380335 C 82.664 215.15753011380335 82.664 219.15753011380335 80 219.15753011380335 C 77.336 219.15753011380335 77.336 215.15753011380335 80 215.15753011380335 Z"></path><path fill="#337AB7" d="M 67 220.70906592446184 C 69.664 220.70906592446184 69.664 224.70906592446184 67 224.70906592446184 C 64.336 224.70906592446184 64.336 220.70906592446184 67 220.70906592446184 Z"></path><path fill="#337AB7" d="M 55 222.9105800642713 C 57.664 222.9105800642713 57.664 226.9105800642713 55 226.9105800642713 C 52.336 226.9105800642713 52.336 222.9105800642713 55 222.9105800642713 Z"></path><path fill="#337AB7" d="M 43 223.67623843770082 C 45.664 223.67623843770082 45.664 227.67623843770082 43 227.67623843770082 C 40.336 227.67623843770082 40.336 223.67623843770082 43 223.67623843770082 Z"></path><path fill="#337AB7" d="M 30 224.72391249190704 C 32.664 224.72391249190704 32.664 228.72391249190704 30 228.72391249190704 C 27.336 228.72391249190704 27.336 224.72391249190704 30 224.72391249190704 Z"></path><path fill="#337AB7" d="M 18 223.77420785503935 C 20.664 223.77420785503935 20.664 227.77420785503935 18 227.77420785503935 C 15.336 227.77420785503935 15.336 223.77420785503935 18 223.77420785503935 Z"></path><path fill="#337AB7" d="M 6 227.54498747455744 C 8.664 227.54498747455744 8.664 231.54498747455744 6 231.54498747455744 C 3.336 231.54498747455744 3.336 227.54498747455744 6 227.54498747455744 Z"></path></g></g><text x="300" text-anchor="middle" class="highcharts-title"  style="color:#333333;font-size:18px;fill:#333333;width:536px;" y="24"><tspan style="font-weight:bold">Kohl</tspan><tspan dx="0"> – Verlaufskurve</tspan></text><text x="300" text-anchor="middle" class="highcharts-subtitle"  style="color:#555555;fill:#555555;width:536px;" y="45"><tspan>Basis: Referenz- und Zeitungskorpora (aggregiert, frei)</tspan></text><g class="highcharts-legend"  transform="translate(241,359)"><g ><g><g class="highcharts-legend-item"  transform="translate(8,3)"><path fill="none" d="M 0 11 L 16 11" stroke="#337AB7" stroke-width="2"></path><path fill="#337AB7" d="M 8 9 C 10.664 9 10.664 13 8 13 C 5.336 13 5.336 9 8 9 Z"></path><text x="21" style="color:#333333;font-size:12px;font-weight:bold;cursor:pointer;fill:#333333;" text-anchor="start"  y="15"><tspan>Kohl: Gesamt</tspan></text></g></g></g></g><g class="highcharts-axis-labels highcharts-xaxis-labels" ><text x="81.17857142857143" style="color:#606060;cursor:default;font-size:12px;font-family:verdana, sans-serif;margin:10px;padding:10px;fill:#606060;width:400px;text-overflow:ellipsis;" text-anchor="end" transform="translate(0,0) rotate(-90 81.17857142857143 312)" y="312" opacity="1"><tspan>1600</tspan></text><text x="105.89285714285714" style="color:#606060;cursor:default;font-size:12px;font-family:verdana, sans-serif;margin:10px;padding:10px;fill:#606060;width:400px;text-overflow:ellipsis;" text-anchor="end" transform="translate(0,0) rotate(-90 105.89285714285714 312)" y="312" opacity="1"><tspan>1620</tspan></text><text x="130.60714285714286" style="color:#606060;cursor:default;font-size:12px;font-family:verdana, sans-serif;margin:10px;padding:10px;fill:#606060;width:400px;text-overflow:ellipsis;" text-anchor="end" transform="translate(0,0) rotate(-90 130.60714285714286 312)" y="312" opacity="1"><tspan>1640</tspan></text><text x="155.32142857142856" style="color:#606060;cursor:default;font-size:12px;font-family:verdana, sans-serif;margin:10px;padding:10px;fill:#606060;width:400px;text-overflow:ellipsis;" text-anchor="end" transform="translate(0,0) rotate(-90 155.32142857142856 312)" y="312" opacity="1"><tspan>1660</tspan></text><text x="180.03571428571428" style="color:#606060;cursor:default;font-size:12px;font-family:verdana, sans-serif;margin:10px;padding:10px;fill:#606060;width:400px;text-overflow:ellipsis;" text-anchor="end" transform="translate(0,0) rotate(-90 180.03571428571428 312)" y="312" opacity="1"><tspan>1680</tspan></text><text x="204.75" style="color:#606060;cursor:default;font-size:12px;font-family:verdana, sans-serif;margin:10px;padding:10px;fill:#606060;width:400px;text-overflow:ellipsis;" text-anchor="end" transform="translate(0,0) rotate(-90 204.75 312)" y="312" opacity="1"><tspan>1700</tspan></text><text x="229.4642857142857" style="color:#606060;cursor:default;font-size:12px;font-family:verdana, sans-serif;margin:10px;padding:10px;fill:#606060;width:400px;text-overflow:ellipsis;" text-anchor="end" transform="translate(0,0) rotate(-90 229.4642857142857 312)" y="312" opacity="1"><tspan>1720</tspan></text><text x="254.17857142857142" style="color:#606060;cursor:default;font-size:12px;font-family:verdana, sans-serif;margin:10px;padding:10px;fill:#606060;width:400px;text-overflow:ellipsis;" text-anchor="end" transform="translate(0,0) rotate(-90 254.17857142857142 312)" y="312" opacity="1"><tspan>1740</tspan></text><text x="278.8928571428571" style="color:#606060;cursor:default;font-size:12px;font-family:verdana, sans-serif;margin:10px;padding:10px;fill:#606060;width:400px;text-overflow:ellipsis;" text-anchor="end" transform="translate(0,0) rotate(-90 278.8928571428571 312)" y="312" opacity="1"><tspan>1760</tspan></text><text x="303.6071428571429" style="color:#606060;cursor:default;font-size:12px;font-family:verdana, sans-serif;margin:10px;padding:10px;fill:#606060;width:400px;text-overflow:ellipsis;" text-anchor="end" transform="translate(0,0) rotate(-90 303.6071428571429 312)" y="312" opacity="1"><tspan>1780</tspan></text><text x="328.32142857142856" style="color:#606060;cursor:default;font-size:12px;font-family:verdana, sans-serif;margin:10px;padding:10px;fill:#606060;width:400px;text-overflow:ellipsis;" text-anchor="end" transform="translate(0,0) rotate(-90 328.32142857142856 312)" y="312" opacity="1"><tspan>1800</tspan></text><text x="353.03571428571433" style="color:#606060;cursor:default;font-size:12px;font-family:verdana, sans-serif;margin:10px;padding:10px;fill:#606060;width:400px;text-overflow:ellipsis;" text-anchor="end" transform="translate(0,0) rotate(-90 353.03571428571433 312)" y="312" opacity="1"><tspan>1820</tspan></text><text x="377.75" style="color:#606060;cursor:default;font-size:12px;font-family:verdana, sans-serif;margin:10px;padding:10px;fill:#606060;width:400px;text-overflow:ellipsis;" text-anchor="end" transform="translate(0,0) rotate(-90 377.75 312)" y="312" opacity="1"><tspan>1840</tspan></text><text x="402.4642857142857" style="color:#606060;cursor:default;font-size:12px;font-family:verdana, sans-serif;margin:10px;padding:10px;fill:#606060;width:400px;text-overflow:ellipsis;" text-anchor="end" transform="translate(0,0) rotate(-90 402.4642857142857 312)" y="312" opacity="1"><tspan>1860</tspan></text><text x="427.17857142857144" style="color:#606060;cursor:default;font-size:12px;font-family:verdana, sans-serif;margin:10px;padding:10px;fill:#606060;width:400px;text-overflow:ellipsis;" text-anchor="end" transform="translate(0,0) rotate(-90 427.17857142857144 312)" y="312" opacity="1"><tspan>1880</tspan></text><text x="451.89285714285717" style="color:#606060;cursor:default;font-size:12px;font-family:verdana, sans-serif;margin:10px;padding:10px;fill:#606060;width:400px;text-overflow:ellipsis;" text-anchor="end" transform="translate(0,0) rotate(-90 451.89285714285717 312)" y="312" opacity="1"><tspan>1900</tspan></text><text x="476.6071428571429" style="color:#606060;cursor:default;font-size:12px;font-family:verdana, sans-serif;margin:10px;padding:10px;fill:#606060;width:400px;text-overflow:ellipsis;" text-anchor="end" transform="translate(0,0) rotate(-90 476.6071428571429 312)" y="312" opacity="1"><tspan>1920</tspan></text><text x="501.3214285714286" style="color:#606060;cursor:default;font-size:12px;font-family:verdana, sans-serif;margin:10px;padding:10px;fill:#606060;width:400px;text-overflow:ellipsis;" text-anchor="end" transform="translate(0,0) rotate(-90 501.3214285714286 312)" y="312" opacity="1"><tspan>1940</tspan></text><text x="526.0357142857143" style="color:#606060;cursor:default;font-size:12px;font-family:verdana, sans-serif;margin:10px;padding:10px;fill:#606060;width:400px;text-overflow:ellipsis;" text-anchor="end" transform="translate(0,0) rotate(-90 526.0357142857143 312)" y="312" opacity="1"><tspan>1960</tspan></text><text x="550.75" style="color:#606060;cursor:default;font-size:12px;font-family:verdana, sans-serif;margin:10px;padding:10px;fill:#606060;width:400px;text-overflow:ellipsis;" text-anchor="end" transform="translate(0,0) rotate(-90 550.75 312)" y="312" opacity="1"><tspan>1980</tspan></text><text x="575.4642857142858" style="color:#606060;cursor:default;font-size:12px;font-family:verdana, sans-serif;margin:10px;padding:10px;fill:#606060;width:400px;text-overflow:ellipsis;" text-anchor="end" transform="translate(0,0) rotate(-90 575.4642857142858 312)" y="312" opacity="1"><tspan>2000</tspan></text></g><g class="highcharts-axis-labels highcharts-yaxis-labels" ><text x="56" style="color:#606060;cursor:default;font-size:11px;fill:#606060;width:188px;text-overflow:clip;" text-anchor="end" transform="translate(0,0)" y="305" opacity="1">0</text><text x="56" style="color:#606060;cursor:default;font-size:11px;fill:#606060;width:188px;text-overflow:clip;" text-anchor="end" transform="translate(0,0)" y="245" opacity="1">25</text><text x="56" style="color:#606060;cursor:default;font-size:11px;fill:#606060;width:188px;text-overflow:clip;" text-anchor="end" transform="translate(0,0)" y="185" opacity="1">50</text><text x="56" style="color:#606060;cursor:default;font-size:11px;fill:#606060;width:188px;text-overflow:clip;" text-anchor="end" transform="translate(0,0)" y="125" opacity="1">75</text><text x="56" style="color:#606060;cursor:default;font-size:11px;fill:#606060;width:188px;text-overflow:clip;" text-anchor="end" transform="translate(0,0)" y="66" opacity="1">100</text></g><g class="highcharts-tooltip"  style="cursor:default;padding:0;white-space:nowrap;" transform="translate(0,-9999)"><path fill="none" d="M 3.5 0.5 L 13.5 0.5 C 16.5 0.5 16.5 0.5 16.5 3.5 L 16.5 13.5 C 16.5 16.5 16.5 16.5 13.5 16.5 L 3.5 16.5 C 0.5 16.5 0.5 16.5 0.5 13.5 L 0.5 3.5 C 0.5 0.5 0.5 0.5 3.5 0.5"  stroke="black" stroke-opacity="0.049999999999999996" stroke-width="5" transform="translate(1, 1)"></path><path fill="none" d="M 3.5 0.5 L 13.5 0.5 C 16.5 0.5 16.5 0.5 16.5 3.5 L 16.5 13.5 C 16.5 16.5 16.5 16.5 13.5 16.5 L 3.5 16.5 C 0.5 16.5 0.5 16.5 0.5 13.5 L 0.5 3.5 C 0.5 0.5 0.5 0.5 3.5 0.5"  stroke="black" stroke-opacity="0.09999999999999999" stroke-width="3" transform="translate(1, 1)"></path><path fill="none" d="M 3.5 0.5 L 13.5 0.5 C 16.5 0.5 16.5 0.5 16.5 3.5 L 16.5 13.5 C 16.5 16.5 16.5 16.5 13.5 16.5 L 3.5 16.5 C 0.5 16.5 0.5 16.5 0.5 13.5 L 0.5 3.5 C 0.5 0.5 0.5 0.5 3.5 0.5"  stroke="black" stroke-opacity="0.15" stroke-width="1" transform="translate(1, 1)"></path><path fill="rgb(249, 249, 249)" fill-opacity=" .85" d="M 3.5 0.5 L 13.5 0.5 C 16.5 0.5 16.5 0.5 16.5 3.5 L 16.5 13.5 C 16.5 16.5 16.5 16.5 13.5 16.5 L 3.5 16.5 C 0.5 16.5 0.5 16.5 0.5 13.5 L 0.5 3.5 C 0.5 0.5 0.5 0.5 3.5 0.5"></path><text x="8"  style="font-size:12px;color:#333333;fill:#333333;" y="20"></text></g></svg>